PathFileType	4	(X/Y/Z)	67_1_26_p0_0-320_filt_butterworth.trc
DataRate	CameraRate	NumFrames	NumMarkers	Units	OrigDataRate	OrigDataStartFrame	OrigNumFrames
55.0	55.0	7	27	m	55.0	200	320
Frame#	Time	RHip			RKnee			RAnkle			RBigToe			RSmallToe			RHeel			LHip			LKnee			LAnkle			LBigToe			LSmallToe			LHeel			Neck			Head			Nose			RShoulder			RElbow			RWrist			RThumb			RIndex			RPinky			LShoulder			LElbow			LWrist			LThumb			LIndex			LPinky			
		X1	Y1	Z1	X2	Y2	Z2	X3	Y3	Z3	X4	Y4	Z4	X5	Y5	Z5	X6	Y6	Z6	X7	Y7	Z7	X8	Y8	Z8	X9	Y9	Z9	X10	Y10	Z10	X11	Y11	Z11	X12	Y12	Z12	X13	Y13	Z13	X14	Y14	Z14	X15	Y15	Z15	X16	Y16	Z16	X17	Y17	Z17	X18	Y18	Z18	X19	Y19	Z19	X20	Y20	Z20	X21	Y21	Z21	X22	Y22	Z22	X23	Y23	Z23	X24	Y24	Z24	X25	Y25	Z25	X26	Y26	Z26	X27	Y27	Z27	
200	3.636363636363636	0.2830857684479221	0.8899838014196684	0.680620257566802	0.35410903527286797	0.47882351438866955	0.6292074478895088	0.33602761978231094	0.025737040021799586	0.917001948096716	0.35003157723336653	-0.03310730144974826	0.688581062040394	0.39501262163172335	-0.03197512507087123	0.7464850784935302	0.3244993008507013	-0.031450650779131756	0.9842237717747442	0.0988181574889399	0.8741362698530857	0.6614689374167209	0.1532640275978882	0.4424850119870477	0.7167768833127955	0.11235388868947516	-0.007127626716832917	0.9732889429797716	0.19020311167804846	-0.04188956227452301	0.6979391752810582	0.1276584297622138	-0.029439441635339354	0.7193892959906819	0.11738738864055401	-0.06845126597596853	1.0568117959736576	0.1186632475787883	1.4182884956716626	0.6895631797268966	0.03662884280517164	1.636424805286557	0.6764602394902817	0.12113114232161418	1.5159489625662066	0.5994871605556205	0.2734970712807668	1.3999660595999996	0.783039993687203	0.4760278960545385	1.3737744633605864	0.5887161852927503	0.44477527237136116	1.500998389925854	0.3762503822903449	0.3668883910160935	1.5885658158885965	0.3051852467637398	0.3850900333710489	1.6213915286209768	0.292058481202239	0.43170462162584156	1.598321424852226	0.33538183918403425	0.015457884123069643	1.3271008987892892	0.649335196485433	0.08964999626233551	1.1902094981175808	0.4771681662060624	0.22902230166448928	1.3574120098889844	0.44185697228742116	0.2249824452896615	1.4485694978071784	0.46593349710254195	0.21796320096495392	1.4635274336504125	0.44586916301804025	0.23472363592440765	1.4390165032928037	0.4106273388909999	
201	3.654545454545455	0.2826915882697973	0.8902590867963196	0.6807323345391836	0.3532725988781004	0.47896358611054896	0.6291896631433422	0.3355744556071105	0.025770811725367812	0.9162824486519274	0.35066164403221534	-0.03263447812846637	0.6863311033020347	0.3950674186254449	-0.031713054700319994	0.7460648152877757	0.3241654621951894	-0.031474020108629555	0.9831672149201534	0.09806405023928381	0.8748123083487123	0.6600060217913142	0.15358697312114045	0.44291885807907916	0.7168455134787792	0.1127344846087757	-0.0062092985269439765	0.9714623652024462	0.19120162563544418	-0.04356215003379285	0.7015274400984174	0.1275936726328648	-0.02952636811502007	0.7195723907434386	0.11737835767326572	-0.0676728703061819	1.0560772906786418	0.1168768585635317	1.418731271492106	0.6889106460187336	0.03682671625382362	1.6373314378995647	0.6762945113942073	0.12111501610461743	1.5168766496817967	0.599829239398352	0.27309133704460065	1.4003577325254175	0.7809444686243929	0.4751948219050403	1.3710010605054257	0.5851359199628969	0.43975859733286043	1.5014573325780791	0.3830120726375159	0.3643790255495695	1.5888356673492152	0.3122847813078934	0.38198478044855355	1.6217725776616083	0.29737168178888723	0.4266772549835236	1.5992036896625017	0.3398450718206159	0.014015294228776922	1.3266216991702002	0.6521315591034049	0.08845185312631308	1.1876624231584325	0.4842188400009579	0.22880333277199638	1.355092765774952	0.4421723381017828	0.221963525069837	1.4475662015830124	0.469145489108277	0.2145403493083483	1.4637263626139214	0.45080701569406895	0.23478875713454758	1.435733854131213	0.4117303617723225	
202	3.672727272727273	0.28249147860044077	0.8908113368489781	0.6811290839084577	0.35231136731963264	0.4793924869290473	0.6292691970664941	0.3350714600344679	0.025997992552761133	0.9154776179935059	0.35009082191456625	-0.03163084049751069	0.6814268646226938	0.39486183439722317	-0.031301234276390644	0.7455570694041213	0.3237417495954858	-0.031832622415567724	0.9827604286480901	0.09776625747406686	0.8759472555582304	0.6588408092510474	0.15397688021403352	0.4437960316930529	0.7168636679369879	0.11331819508663363	-0.004923462822922359	0.9688950515954705	0.19160045959029345	-0.044727699543834945	0.703594090178379	0.12752172797055478	-0.0296526323214293	0.7198759733448568	0.11756525772946942	-0.06668639984952443	1.0548150025520648	0.1154307569244663	1.4192840501794681	0.6878147594309024	0.0370457231195067	1.638739502008423	0.6759670160415316	0.12103857452349151	1.5182761776860498	0.5997757859938947	0.2728708400786044	1.4017040023997842	0.7791242369882505	0.47452453963910457	1.3672792605633617	0.5818286565486199	0.43569252923560936	1.501382986325249	0.3882607024044856	0.36292924342794564	1.5890753126997184	0.319968539663265	0.37930228513143016	1.622137317484407	0.3031879384482497	0.422906595500991	1.6000387035025976	0.3438267776149363	0.013045479000877411	1.3262588218239126	0.6541179771228371	0.08604819155320001	1.1849811456650743	0.495038575383713	0.22860306210407416	1.3516994373855253	0.4429614804010298	0.21892714027622284	1.4451098971706928	0.47100877265897134	0.21149112788014135	1.4633115173099818	0.455366820525629	0.23577101508648068	1.4305140437437425	0.4135869272236447	
203	3.690909090909091	0.28234363860406375	0.8916603435538902	0.6816465964850758	0.3512154483601867	0.48012106593409926	0.629594833100272	0.33452595274998764	0.026479006012101826	0.9142173286925847	0.34870077400059984	-0.030546768231095388	0.6753592844929568	0.39447486812050503	-0.030863014230163903	0.744980727475834	0.32321001950133527	-0.032469870173879846	0.9828232794561131	0.09786349193618231	0.8774449569467312	0.6580100745431567	0.15431332047636698	0.4451531617512578	0.7166347087232046	0.11400880362375233	-0.0033504745861823587	0.9658994947170668	0.1914206323054493	-0.045143778303244037	0.7039476652170564	0.12744543039038117	-0.02980150661595089	0.7202467582386466	0.11791828404512024	-0.06545807539462581	1.0530546234239844	0.11441140152121779	1.420265360878561	0.6863918213938831	0.03717833769729115	1.640383634846844	0.6758867001263904	0.12093954045593533	1.5202466173463864	0.5993542941324207	0.2728206368710636	1.4038111056508238	0.7772710001858617	0.4740797917173673	1.3628568892054453	0.5793540690746536	0.43279727940764806	1.5008488342277606	0.39185832267761306	0.3621006775656168	1.5888790949581162	0.32653518828996486	0.37731220661980935	1.6222047560884425	0.30829450873933345	0.4204742428911279	1.600754096957145	0.3485591033834469	0.01265715906519032	1.3266847002535085	0.6549373154430772	0.08309362768013107	1.1822496476974234	0.5078047805469317	0.22818569531433722	1.3476488015007955	0.44425490306773097	0.21630858037884237	1.4412090222587488	0.4719354081379651	0.20946650674459832	1.4618148893209764	0.45911034396589906	0.23732093436895396	1.4233281225576968	0.4158007216573475	
204	3.709090909090909	0.2821048159474459	0.8927284222995602	0.6822135248617636	0.35005018204969174	0.48101654122635495	0.6302861562588773	0.3339190316128845	0.02713271455051052	0.9124634694422685	0.34698732783164393	-0.029486189233728546	0.6692389647387814	0.3940113868873508	-0.030421856403744143	0.7444139920220529	0.3225535778505569	-0.033279063565825134	0.9827787373580512	0.09825270028754489	0.8791905006772118	0.6575401683760635	0.1544942881349524	0.4469811779800696	0.7161651265764353	0.11465581439816859	-0.0015544147541000364	0.962961939270609	0.19072808476969028	-0.04477726379416625	0.7033453278309836	0.1273716681780697	-0.029941908849901437	0.7206093462323285	0.1183498903413044	-0.06404566441145039	1.0511336666717712	0.11370927159095333	1.4219649683713464	0.6848288511143449	0.03719010690032451	1.642040126364644	0.6758780923580078	0.12086869142431675	1.5228939585304684	0.598679851626968	0.2728886647189539	1.4063087579980813	0.7753479877923105	0.473575124239345	1.3583860739635683	0.5790416441443753	0.4310172693772062	1.5000543520115712	0.39409362567271	0.3615156041205513	1.5880698754310725	0.3308971896227178	0.37664049981604936	1.6218413398688292	0.31162959783842387	0.4200078016034964	1.6012643145434289	0.35355332235716586	0.012842038535624066	1.3283745298898133	0.6544575531832869	0.08044097322462658	1.1793491443144737	0.5204135653208128	0.22771271057448544	1.3434308223050506	0.4458723142115256	0.21432899666817168	1.4363761060255302	0.47271805505712083	0.20853528484070494	1.4592414858272122	0.46148914277838593	0.23908494620319065	1.4147890944946393	0.41805467814357417	
205	3.727272727272727	0.28176525345275794	0.8939008679030264	0.6829083794202927	0.348939030802998	0.4818562631208824	0.6312824086347892	0.33322359220622594	0.027784729447239948	0.9103469168792212	0.3452650151850901	-0.028363363808207375	0.6638363661283018	0.3935895976156314	-0.030103685667663728	0.7439640266449018	0.3217631597489743	-0.034193177790442154	0.9820268258958157	0.09884180330711258	0.8810795069292623	0.6574990619828395	0.15447852229776193	0.44919068113145827	0.7156545485126263	0.1151729362863593	0.0003602732358518185	0.9604104154017066	0.18970426740608176	-0.0437834538779002	0.7027812262412373	0.1273148019208967	-0.03004220145948202	0.7208974925422942	0.11877526673230211	-0.0625312602693391	1.0494100763004384	0.11321340636071905	1.424455591478402	0.6834502455302806	0.037077624397279164	1.643639698862669	0.6753700391549208	0.12088217347945152	1.5261236042392696	0.5978655088799621	0.27304713007476256	1.4088206252815436	0.7736441417512988	0.4724699500743408	1.3546995049312303	0.5827288175487462	0.43000952746756477	1.4993397373208315	0.3955743876185827	0.36096520437000207	1.5871630764199993	0.33255448850981667	0.3777108664371346	1.6215975690092626	0.313551717397365	0.42251627947844184	1.6018474229148194	0.35627894481502437	0.013411052879286749	1.33139727394814	0.6531302073781339	0.07810135953917564	1.17649027670729	0.5309294336538418	0.22719414943337027	1.3394027759088554	0.4472185082208158	0.2126152019035621	1.4313518981984656	0.47426860247243835	0.20816898517158372	1.4562622659428652	0.4624033765856933	0.24084932609274973	1.4060635334353393	0.4204150523209997	
206	3.7454545454545456	0.2813630746134288	0.8951258808864001	0.6838465292415206	0.3479747550692123	0.4825112275311393	0.6324752846648887	0.3324513712852291	0.028313654806973752	0.9079471085064903	0.34366100336434946	-0.02709222291501869	0.6597573579045081	0.39333350389041744	-0.030098300963112935	0.7437394070792777	0.32085239760680984	-0.035188181718899134	0.980536459973411	0.0995774920484186	0.883089261993848	0.6578202417969804	0.1542834342271827	0.45161807262164866	0.7153064271051216	0.11556692479640135	0.0022269148337205336	0.9583215877923086	0.18860455999681094	-0.042281276933972635	0.7025619931521068	0.1272887963819345	-0.03007738596643968	0.7210602137394464	0.11916166738521762	-0.06098107595983204	1.0480412142601017	0.11294166581188328	1.4276250411738438	0.6825095659137123	0.036861284675034744	1.6453279658695181	0.6739096636347588	0.12098701502894131	1.5296803550410312	0.5970101585649683	0.27329327854989593	1.4110951265358536	0.7725362939273709	0.47054276972815695	1.352367342391019	0.5907977425983542	0.42943954269171924	1.498955932592197	0.3966863291851328	0.36082450940342703	1.5870199349637688	0.33133830996559427	0.3805433499595837	1.6224309393864242	0.3157462028823827	0.4285411223094624	1.6029932600765957	0.3544106230215504	0.014094372186523329	1.3354623407944062	0.6516992496262507	0.07598057319410284	1.173972705909458	0.5381110004835703	0.2264240231400722	1.335730607182388	0.4476339758255137	0.2105638015744756	1.4267111843223583	0.47760838520084087	0.20785051021201212	1.4535562445115384	0.4625217373959248	0.24249606809701618	1.3983887652242941	0.42279037764814864	
